<svg width="20" height="21" viewBox="0 0 20 21" fill="none" xmlns="http://www.w3.org/2000/svg">
<g clip-path="url(#clip0_490_29)">
<path d="M18.9 0H1.1C0.808262 0 0.528473 0.116472 0.322183 0.323794C0.115893 0.531115 0 0.812303 0 1.1055V18.9945C0 19.1397 0.0284524 19.2834 0.0837326 19.4176C0.139013 19.5517 0.220038 19.6736 0.322183 19.7762C0.424327 19.8789 0.54559 19.9603 0.679048 20.0158C0.812506 20.0714 0.955546 20.1 1.1 20.1H10.68V12.3112H8.08V9.29625H10.68V7.035C10.6261 6.50412 10.6885 5.96782 10.8627 5.46372C11.0369 4.95962 11.3188 4.49993 11.6885 4.11689C12.0582 3.73385 12.5068 3.43674 13.0028 3.24639C13.4989 3.05604 14.0304 2.97706 14.56 3.015C15.3383 3.01019 16.1163 3.05045 16.89 3.1356V5.8491H15.3C14.04 5.8491 13.8 6.4521 13.8 7.32645V9.2661H16.8L16.41 12.2811H13.8V20.1H18.9C19.0445 20.1 19.1875 20.0714 19.321 20.0158C19.4544 19.9603 19.5757 19.8789 19.6778 19.7762C19.78 19.6736 19.861 19.5517 19.9163 19.4176C19.9715 19.2834 20 19.1397 20 18.9945V1.1055C20 0.960324 19.9715 0.816569 19.9163 0.682444C19.861 0.548318 19.78 0.426449 19.6778 0.323794C19.5757 0.221138 19.4544 0.139708 19.321 0.0841513C19.1875 0.0285947 19.0445 0 18.9 0Z" fill="#F47B50"/>
</g>
<defs>
<clipPath id="clip0_490_29">
<rect width="20" height="20.1" fill="white"/>
</clipPath>
</defs>
</svg>
