<svg width="24" height="25" viewBox="0 0 24 25" fill="none" xmlns="http://www.w3.org/2000/svg">
<g clip-path="url(#clip0_490_23)">
<path d="M18.9383 5.5951C18.6623 5.5951 18.4386 5.37028 18.4386 5.09296C18.4386 4.81564 18.6623 4.59082 18.9383 4.59082" stroke="#F47B50" stroke-width="1.71" stroke-linecap="round" stroke-linejoin="round"/>
<path d="M18.9383 5.5951C19.2143 5.5951 19.438 5.37028 19.438 5.09296C19.438 4.81564 19.2143 4.59082 18.9383 4.59082" stroke="#F47B50" stroke-width="1.71" stroke-linecap="round" stroke-linejoin="round"/>
<path d="M0 5.16803C0 2.31382 2.30252 0 5.14285 0H18.8572C21.6974 0 24 2.31382 24 5.16803V18.9495C24 21.8036 21.6974 24.1175 18.8572 24.1175H5.14285C2.30252 24.1175 0 21.8036 0 18.9495V5.16803Z" stroke="#F47B50" stroke-width="1.71" stroke-linecap="round" stroke-linejoin="round"/>
<path d="M6.9032 12.0586C6.9032 13.417 7.44019 14.7197 8.39603 15.6802C9.35187 16.6408 10.6483 17.1804 12 17.1804C13.3518 17.1804 14.6482 16.6408 15.6041 15.6802C16.5599 14.7197 17.0969 13.417 17.0969 12.0586C17.0969 10.7002 16.5599 9.39744 15.6041 8.43691C14.6482 7.47638 13.3518 6.93677 12 6.93677C10.6483 6.93677 9.35187 7.47638 8.39603 8.43691C7.44019 9.39744 6.9032 10.7002 6.9032 12.0586Z" stroke="#F47B50" stroke-width="1.71" stroke-linecap="round" stroke-linejoin="round"/>
</g>
<defs>
<clipPath id="clip0_490_23">
<rect width="24" height="24.1175" fill="white"/>
</clipPath>
</defs>
</svg>
